<?xml version="1.0" encoding="utf-8"?>
<!-- Generator: Adobe Illustrator 14.0.0, SVG Export Plug-In . SVG Version: 6.00 Build 43363)  -->
<!DOCTYPE svg PUBLIC "-//W3C//DTD SVG 1.1//EN" "http://www.w3.org/Graphics/SVG/1.1/DTD/svg11.dtd">
<svg version="1.1" id="Layer_1" xmlns="http://www.w3.org/2000/svg" xmlns:xlink="http://www.w3.org/1999/xlink" x="0px" y="0px"
	 width="800px" height="600px" viewBox="0 0 800 600" enable-background="new 0 0 800 600" xml:space="preserve">
<g>
	<path fill="#FFFFFF" d="M203.171,278.878h4.8v25.319h0.12c2.28-2.999,5.82-4.8,9.66-4.8c8.399,0,13.559,6.9,13.559,14.88
		c0,7.86-5.22,14.88-13.499,14.88c-3.9,0-7.44-1.619-9.72-4.68h-0.12v3.9h-4.8V278.878z M207.73,313.978
		c0,5.52,3.24,10.74,9.24,10.74c6.18,0,9.42-4.98,9.42-10.68c0-5.641-3.54-10.2-9.48-10.2
		C211.331,303.838,207.73,308.697,207.73,313.978z"/>
	<path fill="#FFFFFF" d="M242.71,328.378h-4.8v-49.5h4.8V328.378z"/>
	<path fill="#FFFFFF" d="M254.05,315.298c0.06,5.22,3.78,9.42,9.24,9.42c4.08,0,6.72-2.46,8.58-5.82l4.08,2.341
		c-2.7,5.039-7.26,7.919-13.02,7.919c-8.399,0-13.799-6.419-13.799-14.52c0-8.34,4.86-15.24,13.679-15.24
		c9.06,0,13.859,7.5,13.379,15.9H254.05z M271.149,311.218c-0.66-4.08-4.08-7.38-8.28-7.38c-4.14,0-7.979,3.3-8.58,7.38H271.149z"/>
	<path fill="#FFFFFF" d="M287.59,303.237h0.12c1.5-2.34,3.9-3.84,6.78-3.84c3.3,0,6.3,1.74,7.8,4.681
		c1.68-3.121,5.04-4.681,8.459-4.681c7.2,0,9,5.88,9,11.82v17.16h-4.8v-16.38c0-3.66-0.24-8.16-5.16-8.16
		c-5.52,0-6.12,5.34-6.12,9.6v14.94h-4.8v-16.021c0-3.479-0.42-8.52-5.04-8.52c-5.64,0-6.239,5.699-6.239,9.96v14.58h-4.8v-28.2h4.8
		V303.237z"/>
	<path fill="#FFFFFF" d="M333.669,303.237h0.12c1.5-2.34,3.9-3.84,6.78-3.84c3.3,0,6.3,1.74,7.8,4.681
		c1.68-3.121,5.04-4.681,8.459-4.681c7.2,0,9,5.88,9,11.82v17.16h-4.8v-16.38c0-3.66-0.24-8.16-5.16-8.16
		c-5.52,0-6.12,5.34-6.12,9.6v14.94h-4.8v-16.021c0-3.479-0.42-8.52-5.04-8.52c-5.64,0-6.24,5.699-6.24,9.96v14.58h-4.8v-28.2h4.8
		V303.237z"/>
	<path fill="#FFFFFF" d="M381.668,289.558c0,1.92-1.56,3.42-3.419,3.42s-3.42-1.5-3.42-3.42c0-1.86,1.56-3.42,3.42-3.42
		S381.668,287.698,381.668,289.558z M380.648,328.378h-4.8v-28.2h4.8V328.378z"/>
	<path fill="#FFFFFF" d="M393.068,315.298c0.06,5.22,3.78,9.42,9.239,9.42c4.08,0,6.72-2.46,8.58-5.82l4.079,2.341
		c-2.699,5.039-7.26,7.919-13.02,7.919c-8.399,0-13.799-6.419-13.799-14.52c0-8.34,4.86-15.24,13.68-15.24
		c9.06,0,13.859,7.5,13.379,15.9H393.068z M410.167,311.218c-0.659-4.08-4.079-7.38-8.279-7.38c-4.14,0-7.979,3.3-8.58,7.38H410.167
		z"/>
</g>
</svg>
